<svg width="121" height="90" viewBox="0 0 121 90" fill="none" xmlns="http://www.w3.org/2000/svg">
<path d="M0.320001 0.935997H38.592C47.808 0.935997 55.9573 2.77066 63.04 6.43999C70.208 10.1093 75.7547 15.2293 79.68 21.8C83.6907 28.3707 85.696 35.88 85.696 44.328C85.696 53.2027 83.7333 61.0107 79.808 67.752C75.968 74.4933 70.464 79.7413 63.296 83.496C56.2133 87.1653 47.9787 89 38.592 89H0.320001V0.935997ZM37.312 65.96C43.712 65.96 48.576 63.9547 51.904 59.944C55.3173 55.848 57.024 50.5573 57.024 44.072C57.024 37.928 55.36 33.064 52.032 29.48C48.7893 25.8107 43.8827 23.976 37.312 23.976H28.608V65.96H37.312ZM105.694 89.768C101.171 89.768 97.63 88.5307 95.07 86.056C92.51 83.5813 91.23 80.4667 91.23 76.712C91.23 72.872 92.5527 69.7573 95.198 67.368C97.8433 64.9787 101.342 63.784 105.694 63.784C109.961 63.784 113.417 65.064 116.062 67.624C118.707 70.0987 120.03 73.128 120.03 76.712C120.03 80.7227 118.793 83.9227 116.318 86.312C113.843 88.616 110.302 89.768 105.694 89.768Z" fill="url(#paint0_linear_10_3)"/>
<defs>
<linearGradient id="paint0_linear_10_3" x1="-8" y1="-8" x2="87" y2="74" gradientUnits="userSpaceOnUse">
<stop/>
<stop offset="1" stop-color="#0F9B0F"/>
</linearGradient>
</defs>
</svg>
